<svg xmlns="http://www.w3.org/2000/svg" width="48" height="48" viewBox="0 0 48 48">
  <defs>
    <linearGradient id="g" x1="0" y1="0" x2="1" y2="1">
      <stop offset="0" stop-color="#148662"/>
      <stop offset="0.55" stop-color="#0F6E56"/>
      <stop offset="1" stop-color="#0C4A37"/>
    </linearGradient>
    <linearGradient id="hl" x1="0" y1="0" x2="0" y2="1">
      <stop offset="0" stop-color="#fff" stop-opacity="0.18"/>
      <stop offset="0.5" stop-color="#fff" stop-opacity="0"/>
    </linearGradient>
  </defs>
  <rect width="48" height="48" rx="11.5" fill="url(#g)"/>
  <rect width="48" height="48" rx="11.5" fill="url(#hl)"/>
  <g transform="translate(3.84 8.81) scale(1.44)" fill="none" stroke="#fff" stroke-width="1.9" stroke-linecap="round" stroke-linejoin="round">
    <path d="M6 3v-.5a1.4 1.4 0 0 1 1.4-1.4h.4"/>
    <path d="M14 3v-.5a1.4 1.4 0 0 0-1.4-1.4h-.4"/>
    <path d="M6 3v5a4 4 0 0 0 8 0V3"/>
    <path d="M10 12v3a5 5 0 0 0 10 0v-2"/>
    <circle cx="20" cy="10" r="2"/>
  </g>
</svg>
